HIERARCHY
ROOT Hips
{
	OFFSET 0.000000 0.000000 0.000000
	CHANNELS 6 Xposition Yposition Zposition Zrotation Yrotation Xrotation 
	JOINT LowerBack
	{
		OFFSET 0.000000 0.000000 0.000000
		CHANNELS 3 Zrotation Yrotation Xrotation
		JOINT Spine
		{
			OFFSET 0.028270 2.035590 -0.193380
			CHANNELS 3 Zrotation Yrotation Xrotation
			JOINT Spine1
			{
				OFFSET 0.056720 2.048850 -0.042750
				CHANNELS 3 Zrotation Yrotation Xrotation
				JOINT Neck
				{
					OFFSET 0.000000 0.000000 0.000000
					CHANNELS 3 Zrotation Yrotation Xrotation
					JOINT Neck1
					{
						OFFSET -0.054170 1.746240 0.172020
						CHANNELS 3 Zrotation Yrotation Xrotation
						JOINT Head
						{
							OFFSET 0.104070 1.761360 -0.123970
							CHANNELS 3 Zrotation Yrotation Xrotation
							End Site
							{
								OFFSET 0.000000 0.000000 0.000000
							}
						}
					}
				}
				JOINT LeftShoulder
				{
					OFFSET 0.000000 0.000000 0.000000
					CHANNELS 3 Zrotation Yrotation Xrotation
					JOINT LeftArm
					{
						OFFSET 3.362410 1.200890 -0.311210
						CHANNELS 3 Zrotation Yrotation Xrotation
						JOINT LeftForeArm
						{
							OFFSET 4.983000 -0.000000 -0.000000
							CHANNELS 3 Zrotation Yrotation Xrotation
							JOINT LeftHand
							{
								OFFSET 3.483560 -0.000000 -0.000000
								CHANNELS 3 Zrotation Yrotation Xrotation
								JOINT LeftFingerBase
								{
									OFFSET 0.000000 0.000000 0.000000
									CHANNELS 3 Zrotation Yrotation Xrotation
									JOINT LeftHandIndex1
									{
										OFFSET 0.715260 -0.000000 -0.000000
										CHANNELS 3 Zrotation Yrotation Xrotation
										End Site
										{
											OFFSET 0.000000 0.000000 0.000000
										}
									}
								}
								JOINT LThumb
								{
									OFFSET 0.000000 0.000000 0.000000
									CHANNELS 3 Zrotation Yrotation Xrotation
									End Site
									{
										OFFSET 0.000000 0.000000 0.000000
									}
								}
							}
						}
					}
				}
				JOINT RightShoulder
				{
					OFFSET 0.000000 0.000000 0.000000
					CHANNELS 3 Zrotation Yrotation Xrotation
					JOINT RightArm
					{
						OFFSET -3.136600 1.374050 -0.404650
						CHANNELS 3 Zrotation Yrotation Xrotation
						JOINT RightForeArm
						{
							OFFSET -5.241900 -0.000000 -0.000000
							CHANNELS 3 Zrotation Yrotation Xrotation
							JOINT RightHand
							{
								OFFSET -3.444170 -0.000000 -0.000000
								CHANNELS 3 Zrotation Yrotation Xrotation
								JOINT RightFingerBase
								{
									OFFSET 0.000000 0.000000 0.000000
									CHANNELS 3 Zrotation Yrotation Xrotation
									JOINT RightHandIndex1
									{
										OFFSET -0.622530 -0.000000 -0.000000
										CHANNELS 3 Zrotation Yrotation Xrotation
										End Site
										{
											OFFSET 0.000000 0.000000 0.000000
										}
									}
								}
								JOINT RThumb
								{
									OFFSET 0.000000 0.000000 0.000000
									CHANNELS 3 Zrotation Yrotation Xrotation
									End Site
									{
										OFFSET 0.000000 0.000000 0.000000
									}
								}
							}
						}
					}
				}
			}
		}
	}
}
}
MOTION
Frames: 12
Frame Time: 0.008333
2.362776 16.982909 1.054840 16.155179 -73.160856 -3.208547 -2.968354 -5.256017 -6.398504 -0.967504 -5.108216 -3.230623 -5.349263 -5.059565 3.021884 13.215744 -25.556653 -9.259745 -1.396802 -0.083377 -0.306947 0.000000 0.000000 0.000000 18.278240 6.285212 -2.790485 -33.835802 -21.498965 -2.119063 179.576604 -73.515480 179.983186 -0.344341 -6.155220 0.030841 0.182810 0.721580 -0.000000 0.000000 0.000000 0.000000 0.000000 0.000000 0.000000 8.412887 -23.504958 -1.435098 46.767947 2.881481 -8.570485 179.114025 68.643073 179.961394 -8.125891 9.817938 -0.755709 0.204829 -0.556618 -0.000000 0.000000 0.000000 0.000000 0.000000 0.000000 0.000000 
2.331488 16.989070 1.058159 14.933037 -71.388163 -2.154048 -3.293545 -5.223925 -6.602634 -1.047007 -5.046378 -3.267300 -5.384179 -4.994916 2.987946 13.244853 -25.543057 -9.377581 -1.390562 -0.080864 -0.337676 0.000000 0.000000 0.000000 18.351520 6.445760 -2.828303 -33.892487 -22.600761 -1.370698 179.567499 -73.332386 179.984169 -0.464101 -6.109803 0.038089 0.188382 0.726224 -0.000000 0.000000 0.000000 0.000000 0.000000 0.000000 0.000000 8.512845 -23.432393 -1.382453 46.787529 2.409404 -8.863141 179.128780 68.881380 179.961282 -8.180161 9.713402 -0.752474 0.204591 -0.551140 -0.000000 0.000000 0.000000 0.000000 0.000000 0.000000 0.000000 
2.299341 16.997257 1.061611 13.890295 -69.602685 -1.272976 -3.633887 -5.183419 -6.813362 -1.131171 -4.974635 -3.305954 -5.419291 -4.920568 2.949803 13.263939 -25.504171 -9.496039 -1.383801 -0.078286 -0.368959 0.000000 0.000000 0.000000 18.420741 6.613475 -2.855866 -33.927880 -23.680108 -0.670056 179.560471 -73.137769 179.985233 -0.589089 -6.071091 0.045639 0.193921 0.731065 -0.000000 0.000000 0.000000 0.000000 0.000000 0.000000 0.000000 8.600774 -23.326361 -1.325544 46.763808 2.018268 -9.160196 179.145758 69.150121 179.961070 -8.238060 9.616803 -0.750141 0.204212 -0.546225 -0.000000 0.000000 0.000000 0.000000 0.000000 0.000000 0.000000 
2.266348 17.007072 1.065350 13.001072 -67.816553 -0.531632 -3.990154 -5.133139 -7.038056 -1.219814 -4.891478 -3.347989 -5.452140 -4.835191 2.908021 13.266112 -25.450010 -9.611926 -1.376634 -0.075717 -0.399914 0.000000 0.000000 0.000000 18.476802 6.775709 -2.873578 -33.914365 -24.718988 -0.031900 179.553992 -72.923838 179.986230 -0.704823 -6.038746 0.052590 0.199121 0.736038 -0.000000 0.000000 0.000000 0.000000 0.000000 0.000000 0.000000 8.672581 -23.198495 -1.263996 46.671931 1.743061 -9.440193 179.165013 69.463089 179.960722 -8.309089 9.529504 -0.749508 0.203988 -0.541919 -0.000000 0.000000 0.000000 0.000000 0.000000 0.000000 0.000000 
2.233316 17.018235 1.069479 12.230114 -66.043750 0.096005 -4.355191 -5.074610 -7.266814 -1.310846 -4.799071 -3.391687 -5.479844 -4.741197 2.863024 13.240102 -25.372707 -9.719701 -1.367893 -0.073145 -0.429142 0.000000 0.000000 0.000000 18.514523 6.938017 -2.880304 -33.843896 -25.710301 0.525994 179.547363 -72.696331 179.987149 -0.812141 -6.013627 0.058944 0.204043 0.741185 -0.000000 0.000000 0.000000 0.000000 0.000000 0.000000 0.000000 8.709369 -23.043570 -1.199634 46.514841 1.612892 -9.697929 179.188661 69.846461 179.960206 -8.391920 9.464015 -0.751578 0.203637 -0.538510 0.000000 0.000000 0.000000 0.000000 0.000000 0.000000 0.000000 
2.200470 17.030346 1.074107 11.560523 -64.297423 0.628743 -4.725282 -5.007821 -7.499640 -1.403121 -4.697730 -3.437338 -5.500046 -4.639125 2.814822 13.176498 -25.269475 -9.814298 -1.357339 -0.070642 -0.455268 0.000000 0.000000 0.000000 18.526434 7.096569 -2.875708 -33.698224 -26.642206 0.988822 179.539386 -72.454041 179.987919 -0.903708 -5.994763 0.064499 0.208524 0.746473 -0.000000 0.000000 0.000000 0.000000 0.000000 0.000000 0.000000 8.699738 -22.860218 -1.132747 46.281640 1.645935 -9.930740 179.218050 70.322394 179.959469 -8.492339 9.421160 -0.756851 0.203173 -0.535978 0.000000 0.000000 0.000000 0.000000 0.000000 0.000000 0.000000 
2.168465 17.043159 1.079305 10.972910 -62.591338 1.080417 -5.094775 -4.932810 -7.733017 -1.495211 -4.588038 -3.484886 -5.510802 -4.529782 2.762151 13.066586 -25.131567 -9.890098 -1.344837 -0.068293 -0.476777 0.000000 0.000000 0.000000 18.506823 7.249807 -2.859299 -33.464249 -27.505579 1.343325 179.529077 -72.199748 179.988496 -0.975713 -5.981086 0.068857 0.212479 0.751872 -0.000000 0.000000 0.000000 0.000000 0.000000 0.000000 0.000000 8.632086 -22.639931 -1.063593 45.964879 1.846769 -10.146561 179.254889 70.912720 179.958449 -8.615714 9.398448 -0.765731 0.202518 -0.534214 -0.000000 0.000000 0.000000 0.000000 0.000000 0.000000 0.000000 
2.137571 17.056374 1.085050 10.456176 -60.938834 1.461755 -5.458293 -4.849248 -7.964314 -1.585901 -4.470227 -3.534514 -5.510933 -4.413585 2.703624 12.903747 -24.947010 -9.941958 -1.330540 -0.066203 -0.492261 0.000000 0.000000 0.000000 18.450835 7.398784 -2.830449 -33.132561 -28.296557 1.580572 179.516021 -71.940451 179.988856 -1.025382 -5.971444 0.071818 0.215785 0.757329 -0.000000 0.000000 0.000000 0.000000 0.000000 0.000000 0.000000 8.497647 -22.370153 -0.992267 45.558327 2.205430 -10.360872 179.300552 71.633201 179.957086 -8.768202 9.388387 -0.778017 0.201617 -0.533008 -0.000000 0.000000 0.000000 0.000000 0.000000 0.000000 0.000000 
2.108410 17.069805 1.091303 9.995109 -59.354300 1.783730 -5.808650 -4.756232 -8.189628 -1.673738 -4.344174 -3.586359 -5.499930 -4.290569 2.637139 12.683511 -24.697446 -9.965269 -1.314694 -0.064472 -0.500467 0.000000 0.000000 0.000000 18.355992 7.552003 -2.788397 -32.703576 -29.023262 1.697635 179.500687 -71.691475 179.989032 -1.055730 -5.965956 0.073784 0.218422 0.762827 -0.000000 0.000000 0.000000 0.000000 0.000000 0.000000 0.000000 8.289720 -22.030495 -0.919075 45.059186 2.693771 -10.596981 179.356261 72.496373 179.955314 -8.953179 9.380758 -0.793414 0.200287 -0.532074 -0.000000 0.000000 0.000000 0.000000 0.000000 0.000000 0.000000 
2.081083 17.083342 1.097875 9.589757 -57.847344 2.044173 -6.146039 -4.652143 -8.406297 -1.759143 -4.208336 -3.640811 -5.478338 -4.159175 2.559188 12.407804 -24.383703 -9.957893 -1.298888 -0.063282 -0.500752 0.000000 0.000000 0.000000 18.219347 7.691186 -2.733966 -32.160968 -29.665049 1.688577 179.481942 -71.445693 179.988928 -1.055786 -5.958746 0.073754 0.220069 0.768140 -0.000000 0.000000 0.000000 0.000000 0.000000 0.000000 0.000000 8.016544 -21.619457 -0.841866 44.444796 3.292698 -10.864060 179.420747 73.497768 179.953047 -9.186030 9.351811 -0.811119 0.198950 -0.530967 -0.000000 0.000000 0.000000 0.000000 0.000000 0.000000 0.000000 
2.056195 17.096837 1.104592 9.223589 -56.431793 2.256793 -6.461052 -4.535254 -8.609491 -1.840206 -4.062028 -3.697771 -5.446407 -4.018793 2.468112 12.076686 -23.979152 -9.917512 -1.282819 -0.062642 -0.492508 0.000000 0.000000 0.000000 18.043182 7.841425 -2.666198 -31.526867 -30.256360 1.563982 179.462333 -71.235652 179.988692 -1.039280 -5.953546 0.072832 0.220885 0.773337 -0.000000 0.000000 0.000000 0.000000 0.000000 0.000000 0.000000 7.673199 -21.107092 -0.761780 43.720722 3.949922 -11.189587 179.494031 74.636323 179.950267 -9.460476 9.290238 -0.829535 0.197188 -0.529480 -0.000000 0.000000 0.000000 0.000000 0.000000 0.000000 0.000000 
2.033938 17.110269 1.111187 8.893172 -55.118142 2.425393 -6.751188 -4.403717 -8.796885 -1.916503 -3.903742 -3.757378 -5.404677 -3.867857 2.361987 11.695700 -23.475649 -9.844608 -1.267064 -0.062593 -0.475845 0.000000 0.000000 0.000000 17.829800 8.006035 -2.585479 -30.811888 -30.805515 1.332144 179.443238 -71.073615 179.988378 -1.010423 -5.950626 0.071217 0.220859 0.778350 -0.000000 0.000000 0.000000 0.000000 0.000000 0.000000 0.000000 7.267266 -20.482582 -0.678121 42.875643 4.631741 -11.581236 179.573660 75.897910 179.946976 -9.774603 9.176968 -0.846466 0.195024 -0.527378 -0.000000 0.000000 0.000000 0.000000 0.000000 0.000000 0.000000 
